<?xml version="1.0" standalone="no"?><!DOCTYPE svg PUBLIC "-//W3C//DTD SVG 1.1//EN" "http://www.w3.org/Graphics/SVG/1.1/DTD/svg11.dtd"><svg t="1537873553839" class="icon" style="" viewBox="0 0 1301 1024" version="1.1" xmlns="http://www.w3.org/2000/svg" p-id="1860" xmlns:xlink="http://www.w3.org/1999/xlink" width="254.1015625" height="200"><defs><style type="text/css"></style></defs><path d="M248.613545 603.928838v361.285693a58.754851 58.754851 0 0 0 58.754851 58.754852H1243.067723a58.754851 58.754851 0 0 0 58.754851-58.754852V488.164329l-526.619823 304.031096-368.940051-213.005471a325.126506 325.126506 0 0 1-127.950247 26.086051c-9.981283 0-19.901331-0.459261-29.698908-1.347167z" fill="#889aa4" p-id="1861"></path><path d="M456.750845 552.185379l318.421288 183.888294 526.619824-304.031096v-94.914038A58.754851 58.754851 0 0 0 1243.067723 278.281836H605.276005a326.932935 326.932935 0 0 1-148.52516 273.903543zM278.343071 0a278.343071 278.343071 0 1 0 278.34307 278.343071A278.343071 278.343071 0 0 0 278.343071 0m90.229571 377.084288c-29.055943 0-43.966632-10.471162-51.437285-22.932457-14.451428 14.482045-34.934489 22.044551-60.132636 22.044551-23.575422 0-43.660457-7.684975-58.17312-22.197638-15.461803-15.61489-23.514187-37.873763-23.269248-64.296606 0-27.218897 8.113619-52.44766 22.809986-71.032441 16.962057-21.432202 41.333533-32.6688 70.420093-32.6688 23.973449 0 40.016983 7.409418 50.671849 16.410943l1.837046-7.133861 1.745194-6.6746h58.479294l-1.561489 10.409926-19.778861 111.447451c-0.765436 4.776319-1.102228 11.175363 1.714577 14.482046s7.838062 3.582239 11.879563 3.582239c31.015458 0 44.915772-38.577964 44.915772-76.788518 0-94.17922-79.146061-108.232621-126.327523-108.232621s-86.800419 14.237106-113.896845 41.180445c-26.177904 26.024817-40.016983 62.765735-40.016983 106.273106 0 41.36415 12.246973 72.900105 36.373508 93.658723 21.891464 18.82972 54.192854 28.811003 93.413784 28.811003a278.986037 278.986037 0 0 0 95.557004-17.972432l10.471162-3.888414 1.469637 11.08351 3.888413 29.300882 0.949141 7.256331-6.91954 2.357543c-35.087577 12.002033-64.786485 19.442069-104.558529 19.442069-59.397817 0-105.966931-15.61489-138.39079-46.385409-30.862371-29.270265-47.150845-71.736642-47.150845-122.775901 0-117.325998 84.412259-196.227119 210.066198-196.227119 53.060009 0 97.792077 13.961549 129.297414 40.353775 32.852504 27.555688 50.212588 67.572672 50.212588 115.886978 0 74.920855-42.007116 125.225295-104.558529 125.225296" fill="#889aa4" p-id="1862"></path><path d="M276.414173 236.642129c-35.332516 0-39.802661 36.526596-40.170071 52.32519 0 16.349708 5.449903 35.791778 31.137928 35.791778 34.720167 0 38.455494-37.138945 38.455494-53.090626 0-35.026342-22.136403-35.026342-29.423351-35.026342" fill="#889aa4" p-id="1863"></path></svg>