<?xml version="1.0" standalone="no"?><!DOCTYPE svg PUBLIC "-//W3C//DTD SVG 1.1//EN" "http://www.w3.org/Graphics/SVG/1.1/DTD/svg11.dtd"><svg t="1578366148872" class="icon" viewBox="0 0 1024 1024" version="1.1" xmlns="http://www.w3.org/2000/svg" p-id="1767" xmlns:xlink="http://www.w3.org/1999/xlink" width="200" height="200"><defs><style type="text/css"></style></defs><path d="M512.3 959.9c-60.5 0-119.2-11.8-174.4-35.2-53.4-22.6-101.3-54.9-142.4-96-41.2-41.2-73.5-89.1-96-142.4C76 631 64.2 572.3 64.2 511.8S76 392.7 99.4 337.4c22.6-53.4 54.9-101.3 96-142.4 41.2-41.2 89.1-73.5 142.4-96C393 75.6 451.7 63.8 512.2 63.8S631.4 75.6 686.7 99c53.4 22.6 101.3 54.9 142.4 96 41.2 41.2 73.5 89.1 96 142.4 23.4 55.2 35.2 113.9 35.2 174.4S948.5 631 925.1 686.3c-22.6 53.4-54.9 101.3-96 142.4-41.2 41.2-89.1 73.5-142.4 96-55.3 23.4-114 35.2-174.4 35.2z m0-887.4C270 72.5 72.9 269.6 72.9 511.8S270 951.2 512.3 951.2s439.3-197.1 439.3-439.3S754.5 72.5 512.3 72.5z" p-id="1768" fill="#ffffff"></path><path d="M463.1 287.8l151.9 0.1-69.6 151.9h0.1c-1.1 2.3-1.6 4.7-1.6 7.3 0.3 8.6 7.4 15.3 15.9 15.3h0.1c0.3 0 0.5 0.1 0.7 0.1 0.1 0 0.3-0.1 0.4-0.1l92.8 1-191.3 227.7 33.1-143.8h-0.2c0.3-1.4 0.7-2.7 0.7-4.2-0.3-8.9-7.8-15.8-16.7-15.5-0.2 0-0.3 0.1-0.4 0.1H360.4l102.7-239.9z m-126.3 272c0.2 0 0.3-0.1 0.4-0.1h122.7l-43.5 189h0.2c-0.3 1.4-0.7 2.7-0.7 4.2 0.3 8.9 7.8 15.8 16.7 15.5 4.5-0.2 8.7-2.3 11.6-5.8L699.3 459c0.2-0.2 0.4-0.5 0.6-0.7l0.1-0.2c2.6-3 4-6.9 3.8-10.9-0.3-8.5-7.3-15.3-15.9-15.3h-0.1c-0.2 0-0.4-0.1-0.7-0.1-0.2 0-0.3 0.1-0.4 0.1l-102.1-1.1 69.7-152.2h-0.1c1.1-2.3 1.6-4.7 1.6-7.3-0.2-4.3-2-8.3-5.2-11.2-3.1-2.9-7.3-4.4-11.6-4.3-0.2 0-0.3 0.1-0.4 0.1l-186.2-0.1c-0.2 0-0.4-0.1-0.7-0.1-6.2 0.3-11.7 4.1-14.1 9.8v0.1c-0.1 0.3-0.3 0.6-0.4 0.9l-116 270.9c-1 2.2-1.4 4.5-1.4 6.9 0.6 8.9 8.1 15.8 17 15.5z m0 0" p-id="1769" fill="#ffffff"></path></svg>