<?xml version="1.0" standalone="no"?><!DOCTYPE svg PUBLIC "-//W3C//DTD SVG 1.1//EN" "http://www.w3.org/Graphics/SVG/1.1/DTD/svg11.dtd"><svg t="1555921127337" class="icon" style="" viewBox="0 0 1024 1024" version="1.1" xmlns="http://www.w3.org/2000/svg" p-id="1355" xmlns:xlink="http://www.w3.org/1999/xlink" width="200" height="200"><defs><style type="text/css"></style></defs><path d="M832.2 98.2H192.7c-35.3 0-64 28.7-64 64v93.3c0 35.3 28.7 64 64 64h639.5c35.3 0 64-28.7 64-64v-93.3c0-35.3-28.7-64-64-64z m32 157.3c0 17.6-14.4 32-32 32H192.7c-17.6 0-32-14.4-32-32v-93.3c0-17.6 14.4-32 32-32h639.5c17.6 0 32 14.4 32 32v93.3z" p-id="1356" fill="#ffffff"></path><path d="M784.1 191.8h-158c-8.9 0-16 7.2-16 16s7.2 16 16 16h158c8.9 0 16-7.2 16-16s-7.1-16-16-16zM832.2 385.4H192.7c-35.3 0-64 28.7-64 64v93.3c0 35.3 28.7 64 64 64h639.5c35.3 0 64-28.7 64-64v-93.3c0-35.3-28.7-64-64-64z m32 157.3c0 17.6-14.4 32-32 32H192.7c-17.6 0-32-14.4-32-32v-93.3c0-17.6 14.4-32 32-32h639.5c17.6 0 32 14.4 32 32v93.3z" p-id="1357" fill="#ffffff"></path><path d="M784.1 479h-158c-8.9 0-16 7.2-16 16s7.2 16 16 16h158c8.9 0 16-7.2 16-16s-7.1-16-16-16zM832.2 670H192.7c-35.3 0-64 28.7-64 64v93.3c0 35.3 28.7 64 64 64h639.5c35.3 0 64-28.7 64-64V734c0-35.3-28.7-64-64-64z m32 157.3c0 17.6-14.4 32-32 32H192.7c-17.6 0-32-14.4-32-32V734c0-17.6 14.4-32 32-32h639.5c17.6 0 32 14.4 32 32v93.3z" p-id="1358" fill="#ffffff"></path><path d="M784.1 763.6h-158c-8.9 0-16 7.2-16 16s7.2 16 16 16h158c8.9 0 16-7.2 16-16s-7.1-16-16-16z" p-id="1359" fill="#ffffff"></path></svg>